<svg xmlns="http://www.w3.org/2000/svg" version="1.1" xmlns:xlink="http://www.w3.org/1999/xlink" xmlns:svgjs="http://svgjs.com/svgjs" width="100%" height="100%" viewBox="0 0 1000 600"><rect width="1000" height="600" x="0" y="0" fill="#191919"/><g><rect width="333.3333333333333" height="333.3333333333333" rx="13.333333333333334" ry="13.333333333333334" y="268.1372741458371" fill="#b88746" transform="matrix(0.5083056036228709,0,0,0.5083056036228709,0,78.98671252483487)" x="245.9151153564453"/><path d="M434.7391408396222 446.42323848095845L434.7391408396222 446.42323848095845Q427.27721190561203 426.93085269415644 412.1401560680486 380.42323848095845L412.1401560680486 380.42323848095845Q410.16046063657654 385.47907604441025 402.05893779393693 408.5044567550701Q393.92695809850545 431.52983746573005 387.8051306873379 446.42323848095845L387.8051306873379 446.42323848095845Q404.8914251035816 446.88009127283664 414.54624743860694 446.88009127283664L414.54624743860694 446.88009127283664Q428.16046063657654 446.88009127283664 434.7391408396222 446.42323848095845ZM409.9472626670334 459.8242537093849L409.9472626670334 459.8242537093849Q404.25183119495216 459.8242537093849 382.32289718479984 459.3674009175067L382.32289718479984 459.3674009175067Q367.6122372863227 496.43339076522244 363.8965012457136 509.80394914085696L363.8965012457136 509.80394914085696Q356.64777028124655 508.2811065012631 353.69345556043436 506.30141106979096Q350.7391408396222 504.32171563831884 350.7391408396222 501.032375536796L350.7391408396222 501.032375536796Q350.7391408396222 498.41308619669456 360.05893779393693 476.48415218654225Q369.37873474825165 454.55521817638993 382.74929312388616 420.65674101902954Q396.1198514995207 386.788720714461 403.79497840307397 360.47399990227825L403.79497840307397 360.47399990227825Q407.96756723556126 359.80394914085696 413.02340479901306 359.80394914085696L413.02340479901306 359.80394914085696Q418.50563830155113 359.80394914085696 420.69853170256636 361.6922740139534Q422.8914251035816 363.55014203425793 425.29751647413997 371.43846690735444L425.29751647413997 371.43846690735444Q439.1249276416527 415.9663856890803 449.8457398243938 443.80394914085696L449.8457398243938 443.80394914085696Q466.9624910934293 488.545065892126 474.42442002743945 503.0120709682681L474.42442002743945 503.0120709682681Q468.2721357634801 507.3978577702986 463.8863489614496 507.3978577702986L463.8863489614496 507.3978577702986Q456.88127281931764 507.3978577702986 454.47518144875926 501.4892283286742L454.47518144875926 501.4892283286742Q450.30259261627197 490.7379592931412 439.3381256111958 459.3674009175067L439.3381256111958 459.3674009175067Q414.7594454081501 459.8242537093849 409.9472626670334 459.8242537093849Z " fill="#191919" transform="matrix(0.5083056036228709,0,0,0.5083056036228709,0,78.98671252483487)"/><path d="M738.3926662926322 452.6021891142331L738.3926662926322 452.6021891142331Q731.6581967662405 435.0101054534547 717.9968442984173 393.0364933440662L717.9968442984173 393.0364933440662Q716.2101483016195 397.59944004358056 708.8984385301085 418.3800888678751Q701.5592411278774 439.16073769216956 696.0342273531642 452.6021891142331L696.0342273531642 452.6021891142331Q711.4547881870653 453.01450357503256 720.1683671252946 453.01450357503256L720.1683671252946 453.01450357503256Q732.4553380571195 453.01450357503256 738.3926662926322 452.6021891142331ZM716.0177348865798 464.69674663101824L716.0177348865798 464.69674663101824Q710.877547941946 464.69674663101824 691.0864538235703 464.28443217021874L691.0864538235703 464.28443217021874Q677.8099281858266 497.7368787564177 674.4564372379907 509.8039486424829L674.4564372379907 509.8039486424829Q667.9143811266388 508.42956710648457 665.248080946802 506.6428711096867Q662.5817807669653 504.85617511288893 662.5817807669653 501.8875109951326L662.5817807669653 501.8875109951326Q662.5817807669653 499.52357475321554 670.992995767275 479.73248063483976Q679.4042107675846 459.9413865164641 691.4712806536498 429.3476535251416Q703.538350539715 398.78140816453913 710.4652334811465 375.0320952224883L710.4652334811465 375.0320952224883Q714.2310388897819 374.427367346649 718.7939855892962 374.427367346649L718.7939855892962 374.427367346649Q723.7417591188903 374.427367346649 725.7208685307278 376.13160045128694Q727.6999779425653 377.8083459252049 729.8715007694427 384.9276422816761L729.8715007694427 384.9276422816761Q742.3508851163074 425.1145583942668 752.0265311297355 450.23825287231597L752.0265311297355 450.23825287231597Q767.4745795943566 490.61758239994646 774.2090491207482 503.6742069919304L774.2090491207482 503.6742069919304Q768.6565477153151 507.6324258156056 764.6983288916399 507.6324258156056L764.6983288916399 507.6324258156056Q758.3761738260478 507.6324258156056 756.2046509991703 502.2998254559321L756.2046509991703 502.2998254559321Q752.438845590535 492.596691811784 742.5432985313471 464.28443217021874L742.5432985313471 464.28443217021874Q720.3607805403344 464.69674663101824 716.0177348865798 464.69674663101824ZM788.0628150036114 471.21131511165026L788.0628150036114 471.21131511165026L788.0628150036114 439.16073769216956Q788.0628150036114 418.57250228291485 786.8808468826528 403.3443548640535L786.8808468826528 403.3443548640535Q790.0419244154489 402.93204040325406 794.5773834842432 402.93204040325406L794.5773834842432 402.93204040325406Q803.7032768832721 402.93204040325406 803.7032768832721 408.86936863876673L803.7032768832721 408.86936863876673Q803.7032768832721 409.66650992964577 803.4009129453525 414.9991102893192Q803.0985490074329 420.35919827971264 802.7137221773532 428.2756359270629Q802.3014077165537 436.1920735744132 802.3014077165537 443.3113699308845L802.3014077165537 443.3113699308845L802.3014077165537 456.97272239870773Q802.3014077165537 488.22615852730934 803.4833758375123 494.76821463866133L803.4833758375123 494.76821463866133Q810.2178453639042 495.15304146874087 813.9836507725395 495.15304146874087L813.9836507725395 495.15304146874087Q838.722518420509 495.15304146874087 846.0342281920202 491.6071371058652L846.0342281920202 491.6071371058652Q847.2436839436987 495.3729425145006 847.2436839436987 499.11126029241603L847.2436839436987 499.11126029241603Q847.2436839436987 502.2998254559321 845.8418147769803 503.6742069919304L845.8418147769803 503.6742069919304Q842.8731506592239 505.84572981880774 820.3058058381318 505.84572981880774L820.3058058381318 505.84572981880774Q815.962760184377 505.84572981880774 805.9572626023094 505.7632669266479Q795.9792526509616 505.653316403768 795.3745247751224 505.653316403768L795.3745247751224 505.653316403768Q790.8390657063278 505.4609029887282 789.2447831245697 503.48179357689065Q787.6505005428119 501.50268416505304 787.6505005428119 496.93973746553866L787.6505005428119 496.93973746553866Q787.6505005428119 494.57580122362157 787.8704015885714 485.6698088703525Q788.0628150036114 476.7638165170834 788.0628150036114 471.21131511165026ZM879.4866747782191 414.6142834592397L879.4866747782191 414.6142834592397Q880.0914026540584 419.3696435737939 880.0914026540584 445.29047934272205L880.0914026540584 445.29047934272205L892.7632004159627 445.29047934272205Q906.0122384229865 445.29047934272205 911.7571532434595 444.6857514668828L911.7571532434595 444.6857514668828Q912.3343934885788 446.28003404864086 912.3343934885788 449.0562847513574L912.3343934885788 449.0562847513574Q912.3343934885788 453.01450357503256 910.6576480146609 454.49883563391074Q908.9809025407428 455.9831676927889 905.4075105471472 456.1755811078287L905.4075105471472 456.1755811078287Q901.2568783084323 456.36799452286846 894.1375819519612 456.36799452286846L894.1375819519612 456.36799452286846L880.0914026540584 456.36799452286846Q880.0914026540584 488.22615852730934 881.2733707750169 494.76821463866133L881.2733707750169 494.76821463866133Q888.3926671314882 495.15304146874087 892.7632004159627 495.15304146874087L892.7632004159627 495.15304146874087Q918.8764495999308 495.15304146874087 926.9853006623209 491.6071371058652L926.9853006623209 491.6071371058652Q928.3871698290391 495.15304146874087 928.3871698290391 499.11126029241603L928.3871698290391 499.11126029241603Q928.3871698290391 502.2998254559321 926.792887247281 503.6742069919304L926.792887247281 503.6742069919304Q923.8242231295246 505.84572981880774 899.882496772434 505.84572981880774L899.882496772434 505.84572981880774Q895.1271366578799 505.84572981880774 884.6268617228527 505.7632669266479Q874.1540744185456 505.653316403768 873.7417599577461 505.653316403768L873.7417599577461 505.653316403768Q868.7939864281523 505.4609029887282 867.1172409542344 503.48179357689065Q865.4404954803163 501.50268416505304 865.4404954803163 496.93973746553866L865.4404954803163 496.93973746553866Q865.4404954803163 494.16348676282206 865.6329088953562 484.7627170565936Q865.8253223103959 475.36194735036514 865.8253223103959 470.0293469906917L865.8253223103959 470.0293469906917L865.8253223103959 439.73797793728886Q865.8253223103959 417.1981207469165 863.4613860684788 404.3339095699723L863.4613860684788 404.3339095699723Q882.867653356775 402.93204040325406 899.6900833573943 402.93204040325406L899.6900833573943 402.93204040325406Q923.6318097144849 402.93204040325406 926.6004738322413 405.3234642758911L926.6004738322413 405.3234642758911Q928.1672687832795 406.6978458118894 928.1672687832795 409.85892334468554L928.1672687832795 409.85892334468554Q928.1672687832795 413.8171421683607 926.792887247281 417.3905341619563L926.792887247281 417.3905341619563Q917.2821670181727 414.2294566291602 897.1062460697176 414.2294566291602L897.1062460697176 414.2294566291602Q889.3822218374071 414.2294566291602 879.4866747782191 414.6142834592397ZM941.8286212511027 499.11126029241603L941.8286212511027 499.11126029241603Q941.8286212511027 488.22615852730934 978.4421453700977 452.6021891142331L978.4421453700977 452.6021891142331Q951.7241683102905 415.6038381651585 942.8181759570214 408.86936863876673L942.8181759570214 408.86936863876673Q949.1678186533336 401.94248569733526 956.0947015947652 401.94248569733526L956.0947015947652 401.94248569733526Q961.042475124359 401.94248569733526 965.9902486539529 408.67695522372696L965.9902486539529 408.67695522372696Q972.504817134585 416.78580628611707 987.952865599206 441.7170873491264L987.952865599206 441.7170873491264Q996.0617166615962 432.42626816577786 1002.6862356651079 421.0463890477118Q1009.3107546686199 409.66650992964577 1010.905037250378 401.94248569733526L1010.905037250378 401.94248569733526Q1024.9512165482806 403.72918169413305 1024.9512165482806 410.6560646355645L1024.9512165482806 410.6560646355645Q1024.9512165482806 415.79625158019826 1015.3580334270123 428.1656854041831Q1005.7648503057442 440.5351192281679 994.2750206647984 452.02494886911376L994.2750206647984 452.02494886911376Q1021.4053121854049 493.1739320569033 1032.6752407805911 500.3207160440945L1032.6752407805911 500.3207160440945Q1026.3530857149988 507.02769793976626 1020.1958564337265 507.02769793976626L1020.1958564337265 507.02769793976626Q1014.863256074053 507.02769793976626 1010.5202104202983 501.31027075001333L1010.5202104202983 501.31027075001333Q999.0303807793525 486.85177699131106 984.5718870206501 463.10246404926016L984.5718870206501 463.10246404926016Q975.0886544222617 473.3828379385276 966.5674888990723 485.97217280827215Q958.0738110066027 498.5340200472967 955.6823871339657 507.02769793976626L955.6823871339657 507.02769793976626Q941.8286212511027 505.84572981880774 941.8286212511027 499.11126029241603ZM1095.621915129314 463.8996053401392L1095.621915129314 463.8996053401392Q1091.8561097206784 454.9936129868701 1079.5691387888535 421.733579815711L1079.5691387888535 421.733579815711Q1069.6735917296658 450.23825287231597 1063.9561645399128 463.70719192509944L1063.9561645399128 463.70719192509944Q1075.830821010938 464.09201875517897 1082.1529760765304 464.09201875517897L1082.1529760765304 464.09201875517897Q1091.443795259879 464.09201875517897 1095.621915129314 463.8996053401392ZM1078.9918985437344 474.5922936902061L1078.9918985437344 474.5922936902061Q1074.8412663050194 474.5922936902061 1059.7780446704778 474.17997922940657L1059.7780446704778 474.17997922940657Q1058.7884899645592 476.5714031020437 1055.544949539603 484.68025416443373Q1052.273921483927 492.7891052268238 1050.2948120720896 498.23165610937707Q1048.3157026602519 503.6742069919304 1046.9138334935337 508.8143939365641L1046.9138334935337 508.8143939365641Q1035.2590780682679 507.24759898552605 1035.2590780682679 502.6846522860116L1035.2590780682679 502.6846522860116Q1035.2590780682679 500.70554287417406 1037.1282369572257 496.1425961746597Q1038.9973958461833 491.6071371058652 1043.6702930685776 481.02439927867823Q1048.3157026602519 470.4141738207712 1052.4663348989668 459.7489731014243L1052.4663348989668 459.7489731014243Q1067.9143833635878 419.94688381891314 1072.6422558474221 403.9215951091728L1072.6422558474221 403.9215951091728Q1075.830821010938 403.3443548640535 1079.9814532496532 403.3443548640535L1079.9814532496532 403.3443548640535Q1084.3244989034079 403.3443548640535 1086.1111949002056 404.608785877172Q1087.8978908970034 405.90070452101037 1090.0694137238806 411.6456193414833L1090.0694137238806 411.6456193414833Q1091.6636963056387 415.79625158019826 1098.6730421392301 434.707741515535Q1105.7098756035414 453.59174382015186 1109.6680944272166 463.70719192509944L1109.6680944272166 463.70719192509944Q1119.151327025605 487.0441904063508 1128.277220424634 504.2789348677697L1128.277220424634 504.2789348677697Q1122.7247190192006 507.02769793976626 1119.3712280713648 507.02769793976626L1119.3712280713648 507.02769793976626Q1113.433899835852 507.02769793976626 1111.2348893782548 503.06947911609114L1111.2348893782548 503.06947911609114Q1110.0529212572962 500.3207160440945 1099.580133952989 474.17997922940657L1099.580133952989 474.17997922940657Q1082.5378029066098 474.5922936902061 1078.9918985437344 474.5922936902061ZM1222.669744316998 505.653316403768L1222.669744316998 505.653316403768Q1218.7115254933228 506.0381432338475 1216.5400026664454 506.0381432338475L1216.5400026664454 506.0381432338475Q1209.8055331400537 506.0381432338475 1207.029282437337 502.0799244101724L1207.029282437337 502.0799244101724Q1201.0919542018244 492.9815186418635 1184.6818386620046 465.686301336937Q1168.2442354914647 438.3635964012905 1157.7439605564377 423.13544898242924L1157.7439605564377 423.13544898242924Q1158.1562750172372 437.97876957121105 1158.1562750172372 469.8369335756519L1158.1562750172372 469.8369335756519Q1158.1562750172372 495.95018275961985 1161.3173525500333 505.04858852792876L1161.3173525500333 505.04858852792876Q1157.7439605564377 506.0381432338475 1154.3904696086017 506.0381432338475L1154.3904696086017 506.0381432338475Q1149.0578692489282 506.0381432338475 1147.2711732521304 504.0590338220099Q1145.4844772553326 502.0799244101724 1145.4844772553326 497.3520519263381L1145.4844772553326 497.3520519263381Q1145.4844772553326 494.9606280537011 1145.5944277782125 485.257494409553Q1145.6768906703726 475.5818483961249 1145.6768906703726 470.0293469906917L1145.6768906703726 470.0293469906917L1145.6768906703726 439.16073769216956Q1145.6768906703726 413.43231533828117 1142.7082265526162 403.9215951091728L1142.7082265526162 403.9215951091728Q1146.2816185462118 402.7396269882143 1151.2293920758057 402.7396269882143L1151.2293920758057 402.7396269882143Q1157.359133726358 402.7396269882143 1161.509765965073 407.3025736877287L1161.509765965073 407.3025736877287Q1169.2337901973835 415.21901133507896 1184.0771107861653 438.55600981633035Q1198.9204313749472 461.92049592830165 1210.1903599701334 482.7011447525961L1210.1903599701334 482.7011447525961Q1209.2008052642145 468.43506440893367 1209.2008052642145 440.15029239808837L1209.2008052642145 440.15029239808837Q1209.2008052642145 418.7649156979546 1208.018837143256 403.3443548640535L1208.018837143256 403.3443548640535Q1211.179914676052 402.93204040325406 1213.763751963729 402.93204040325406L1213.763751963729 402.93204040325406Q1222.8621577320378 402.93204040325406 1222.8621577320378 408.86936863876673L1222.8621577320378 408.86936863876673Q1222.8621577320378 409.66650992964577 1222.5597937941181 414.9991102893192Q1222.2849174869184 420.35919827971264 1221.9825535489988 428.2756359270629Q1221.6801896110792 436.1920735744132 1221.6801896110792 443.3113699308845L1221.6801896110792 443.3113699308845L1221.6801896110792 469.8369335756519Q1221.6801896110792 492.9815186418635 1222.669744316998 505.653316403768ZM1254.7203217364786 497.54446534137793L1254.7203217364786 497.54446534137793Q1256.9193321940759 484.2679397036342 1257.3041590241555 445.6753061728016L1257.3041590241555 445.6753061728016Q1257.3041590241555 419.17723015875407 1255.3250496123178 403.72918169413305L1255.3250496123178 403.72918169413305Q1264.8357698414263 401.94248569733526 1280.8610585511665 401.94248569733526L1280.8610585511665 401.94248569733526Q1293.725269728111 401.94248569733526 1303.9231807252183 404.5263229850121Q1314.0936040916058 407.08267264196894 1322.7247201376754 412.93753798532174Q1331.3283485530246 418.7649156979546 1335.9737581446989 429.2651906329817Q1340.6191677363731 439.73797793728886 1340.6191677363731 454.3888851110309L1340.6191677363731 454.3888851110309Q1340.6191677363731 477.34105676220275 1327.3701297293496 492.1843773509845Q1314.0936040916058 507.02769793976626 1289.7670509044356 507.02769793976626L1289.7670509044356 507.02769793976626Q1267.0072926683035 507.02769793976626 1254.7203217364786 497.54446534137793ZM1270.9655114919788 413.2399019232414L1270.9655114919788 413.2399019232414Q1271.5427517370981 421.1563395705917 1271.5427517370981 437.56645511041154L1271.5427517370981 437.56645511041154Q1271.5427517370981 471.21131511165026 1269.3712289102207 490.80999581498617L1269.3712289102207 490.80999581498617Q1277.4800799726108 496.1425961746597 1289.9594643194755 496.1425961746597L1289.9594643194755 496.1425961746597Q1299.6625979636235 496.1425961746597 1306.7818943200948 492.596691811784Q1313.901190676566 489.0232998181884 1317.6669960852014 483.0035086905158Q1321.432801493837 476.9562299321232 1323.1095469677548 470.52412434365107Q1324.7862924416727 464.09201875517897 1324.7862924416727 457.1651358137475L1324.7862924416727 457.1651358137475Q1324.7862924416727 435.0101054534547 1313.4064133236066 423.8226397504284Q1302.0265342055407 412.63517404740213 1280.8610585511665 412.63517404740213L1280.8610585511665 412.63517404740213Q1279.4591893844483 412.63517404740213 1277.8923944334101 412.74512457028203Q1276.2981118516523 412.8275874624419 1274.2365395476547 413.02000087748166Q1272.1474796129373 413.2399019232414 1270.9655114919788 413.2399019232414ZM1427.3151550271468 491.799550520905L1427.3151550271468 491.799550520905Q1431.6582006809015 496.1425961746597 1436.7983876255353 496.1425961746597L1436.7983876255353 496.1425961746597Q1437.787942331454 496.1425961746597 1440.97650749497 495.75776934458014L1440.97650749497 495.75776934458014Q1442.3508890309686 498.5340200472967 1442.3508890309686 500.8979562892138L1442.3508890309686 500.8979562892138Q1442.3508890309686 507.02769793976626 1429.4866778540245 507.02769793976626L1429.4866778540245 507.02769793976626Q1423.7417630335513 507.02769793976626 1418.4091626738777 502.7946028088915Q1413.0490746834844 498.5340200472967 1408.1013011538905 490.50763187706656Q1403.1535276242967 482.5087313375564 1400.4872274444597 477.06618045500306Q1397.8209272646232 471.6236295724497 1394.0551218559876 463.10246404926016L1394.0551218559876 463.10246404926016Q1390.2893164473526 462.3053227583812 1390.2893164473526 459.14424522558505L1390.2893164473526 459.14424522558505Q1390.2893164473526 457.1651358137475 1391.6911856140705 453.20691699007233L1391.6911856140705 453.20691699007233Q1396.0342312678254 454.19647169599114 1399.1953088006212 454.19647169599114L1399.1953088006212 454.19647169599114Q1408.32120219965 454.19647169599114 1414.038629389403 448.5615073983981Q1419.7835442098763 442.92654310080496 1419.7835442098763 433.22340945665684L1419.7835442098763 433.22340945665684Q1419.7835442098763 421.733579815711 1413.4613891442837 417.1981207469165Q1407.1117464479717 412.63517404740213 1394.0551218559876 412.63517404740213L1394.0551218559876 412.63517404740213Q1392.873153735029 412.63517404740213 1382.1804653849622 413.2399019232414L1382.1804653849622 413.2399019232414Q1382.9776066758413 422.3383076915502 1382.9776066758413 444.30092463680324L1382.9776066758413 444.30092463680324L1382.9776066758413 474.78470710524584Q1382.9776066758413 495.3729425145006 1385.9462707935977 505.04858852792876L1385.9462707935977 505.04858852792876Q1382.592779845762 506.0381432338475 1377.2326918553686 506.0381432338475Q1371.900091495695 506.0381432338475 1370.0034449760174 504.0590338220099Q1368.1342860870595 502.0799244101724 1368.1342860870595 497.3520519263381L1368.1342860870595 497.3520519263381Q1368.1342860870595 494.9606280537011 1368.3266995020992 485.257494409553Q1368.519112917139 475.5818483961249 1368.519112917139 470.0293469906917L1368.519112917139 470.0293469906917L1368.519112917139 439.16073769216956Q1368.519112917139 417.3905341619563 1366.3475900902617 403.72918169413305L1366.3475900902617 403.72918169413305Q1377.0402784403286 401.94248569733526 1391.278871153271 401.94248569733526L1391.278871153271 401.94248569733526Q1435.6164195045767 401.94248569733526 1435.6164195045767 433.0309960416171L1435.6164195045767 433.0309960416171Q1435.6164195045767 445.29047934272205 1428.6070736709853 453.01450357503256Q1421.570240206674 460.7385278073431 1409.8879971506885 463.2948774643L1409.8879971506885 463.2948774643Q1421.9550670367535 486.4669501612315 1427.3151550271468 491.799550520905ZM1467.6944845547773 470.0293469906917L1467.6944845547773 470.0293469906917L1467.6944845547773 439.16073769216956Q1467.6944845547773 418.57250228291485 1466.4850288030989 403.5367682790933L1466.4850288030989 403.5367682790933Q1470.0584207966945 402.93204040325406 1474.0166396203695 402.93204040325406L1474.0166396203695 402.93204040325406Q1483.3074588037182 402.93204040325406 1483.3074588037182 408.86936863876673L1483.3074588037182 408.86936863876673Q1483.3074588037182 409.66650992964577 1483.0325824965184 414.9991102893192Q1482.730218558599 420.35919827971264 1482.3179040977993 428.2756359270629Q1481.93307726772 436.1920735744132 1481.93307726772 443.3113699308845L1481.93307726772 443.3113699308845L1481.93307726772 474.3723926444464Q1481.93307726772 495.15304146874087 1485.094154800516 504.85617511288893L1485.094154800516 504.85617511288893Q1482.1254906827596 506.0381432338475 1476.3805758622866 506.0381432338475L1476.3805758622866 506.0381432338475Q1471.047975502613 506.0381432338475 1469.1788166136555 504.0590338220099Q1467.282170093978 502.0799244101724 1467.282170093978 497.3520519263381L1467.282170093978 497.3520519263381Q1467.282170093978 494.9606280537011 1467.4745835090175 485.257494409553Q1467.6944845547773 475.5818483961249 1467.6944845547773 470.0293469906917ZM1562.8841497380204 463.8996053401392L1562.8841497380204 463.8996053401392Q1559.118344329385 454.9936129868701 1546.85886102828 421.733579815711L1546.85886102828 421.733579815711Q1536.9633139690923 450.23825287231597 1531.2183991486195 463.70719192509944L1531.2183991486195 463.70719192509944Q1543.093055619645 464.09201875517897 1549.415210685237 464.09201875517897L1549.415210685237 464.09201875517897Q1558.7335174993057 464.09201875517897 1562.8841497380204 463.8996053401392ZM1546.2541331524408 474.5922936902061L1546.2541331524408 474.5922936902061Q1542.103500913726 474.5922936902061 1527.0677669099045 474.17997922940657L1527.0677669099045 474.17997922940657Q1526.078212203986 476.5714031020437 1522.8071841483097 484.68025416443373Q1519.5361560926337 492.7891052268238 1517.5570466807962 498.23165610937707Q1515.5779372689585 503.6742069919304 1514.2035557329602 508.8143939365641L1514.2035557329602 508.8143939365641Q1502.5213126769745 507.24759898552605 1502.5213126769745 502.6846522860116L1502.5213126769745 502.6846522860116Q1502.5213126769745 500.70554287417406 1504.3904715659323 496.1425961746597Q1506.28711808561 491.6071371058652 1510.9325276772843 481.02439927867823Q1515.5779372689585 470.4141738207712 1519.7285695076735 459.7489731014243L1519.7285695076735 459.7489731014243Q1535.1766179722945 419.94688381891314 1539.9319780868486 403.9215951091728L1539.9319780868486 403.9215951091728Q1543.093055619645 403.3443548640535 1547.2436878583599 403.3443548640535L1547.2436878583599 403.3443548640535Q1551.5867335121143 403.3443548640535 1553.373429508912 404.608785877172Q1555.1601255057099 405.90070452101037 1557.3316483325873 411.6456193414833L1557.3316483325873 411.6456193414833Q1558.9259309143454 415.79625158019826 1565.9352767479368 434.707741515535Q1572.972110212248 453.59174382015186 1576.9303290359233 463.70719192509944L1576.9303290359233 463.70719192509944Q1586.4410492650318 487.0441904063508 1595.5394550333403 504.2789348677697L1595.5394550333403 504.2789348677697Q1589.986953627907 507.02769793976626 1586.6334626800713 507.02769793976626L1586.6334626800713 507.02769793976626Q1580.6961344445585 507.02769793976626 1578.5246116176813 503.06947911609114L1578.5246116176813 503.06947911609114Q1577.315155866003 500.3207160440945 1566.8423685616958 474.17997922940657L1566.8423685616958 474.17997922940657Q1549.8275251460364 474.5922936902061 1546.2541331524408 474.5922936902061ZM1605.627415507568 367.5004844052175L1605.627415507568 367.5004844052175Q1605.627415507568 363.9545800423419 1608.293715687405 361.86552010762443Q1610.9600158672415 359.80394780362695 1614.9182346909165 359.80394780362695L1614.9182346909165 359.80394780362695Q1618.4916266845123 359.80394780362695 1620.8555629264295 361.9754706305043Q1623.2469867990667 364.14699345738165 1623.2469867990667 368.9023535719358L1623.2469867990667 368.9023535719358Q1623.2469867990667 377.2036180493656 1619.4811813904312 401.94248569733526L1619.4811813904312 401.94248569733526Q1618.684040099552 406.6978458118894 1617.117245148514 408.5670047008471Q1615.522962566756 410.4636512205248 1612.5542984489994 410.4636512205248L1612.5542984489994 410.4636512205248Q1610.1903622070824 410.4636512205248 1607.7989383344454 409.66650992964577L1607.7989383344454 409.66650992964577Q1608.4036662102844 406.09311793605013 1608.4036662102844 401.7500722822955L1608.4036662102844 401.7500722822955Q1608.4036662102844 389.6830023962303 1607.0017970435665 379.5950419220027Q1605.627415507568 369.4795938170551 1605.627415507568 367.5004844052175ZM1708.7335183381615 425.6917986393861L1708.7335183381615 425.6917986393861Q1705.957267635445 420.1667848646729 1699.0303846940137 416.4834423481974Q1692.103501752582 412.8275874624419 1684.5993785660312 412.8275874624419L1684.5993785660312 412.8275874624419Q1676.6829409186807 412.8275874624419 1671.0479766210879 416.8957568089969Q1665.3855246927747 420.93643852483194 1665.3855246927747 428.66046275714245L1665.3855246927747 428.66046275714245Q1665.3855246927747 434.79020440769494 1669.5636445622094 438.6659603392102Q1673.7142768009244 442.51422864000546 1679.953968974357 444.10851122176354Q1686.1661735170692 445.6753061728016 1693.3954203964204 447.8743166303989Q1700.6246672757716 450.0458394572762 1706.8643594492037 452.5197262220732Q1713.1040516226362 454.9936129868701 1717.2546838613512 461.01340411454277Q1721.405316100066 467.06068287293533 1721.405316100066 475.9666752262044L1721.405316100066 475.9666752262044Q1721.405316100066 491.99196393594474 1710.21785039704 499.52357475321554Q1699.0303846940137 507.02769793976626 1683.005095984273 507.02769793976626L1683.005095984273 507.02769793976626Q1669.9484713922889 507.02769793976626 1659.9429738102212 502.6846522860116Q1649.9649638588735 498.34160663225697 1649.9649638588735 491.99196393594474L1649.9649638588735 491.99196393594474Q1649.9649638588735 487.0441904063508 1658.8709562121426 482.7011447525961L1658.8709562121426 482.7011447525961Q1662.0320337449389 488.63847298810884 1670.0584219151692 492.40427839674425Q1678.0573224546793 496.1425961746597 1686.5784879778685 496.1425961746597L1686.5784879778685 496.1425961746597Q1695.292066916098 496.1425961746597 1701.72417250457 491.9095010437848Q1708.1562780930421 487.6489182821901 1708.1562780930421 479.73248063483976L1708.1562780930421 479.73248063483976Q1708.1562780930421 472.8055976934083 1702.4113632725694 468.7374283468533Q1696.6664484520966 464.69674663101824 1688.4476468668263 462.7176372191807Q1680.2288452815565 460.7385278073431 1672.0375313270067 458.0447399967864Q1663.8187297417367 455.37843981694965 1658.0738149212636 448.9463342284776Q1652.3289001007909 442.51422864000546 1652.3289001007909 432.0414413356983L1652.3289001007909 432.0414413356983Q1652.3289001007909 417.3905341619563 1662.4168605750183 409.66650992964577Q1672.5323086799658 401.94248569733526 1688.145282928907 401.94248569733526L1688.145282928907 401.94248569733526Q1699.635112569853 401.94248569733526 1709.2282956911208 405.8182416288505Q1718.8214788123892 409.66650992964577 1718.8214788123892 416.59339287107724L1718.8214788123892 416.59339287107724Q1718.8214788123892 423.71268922754854 1708.7335183381615 425.6917986393861Z " fill="#b88746" transform="matrix(0.5083056036228709,0,0,0.5083056036228709,0,78.98671252483487)"/></g></svg>